<?xml version="1.0" encoding="UTF-8" standalone="no"?>
<svg
   xmlns:dc="http://purl.org/dc/elements/1.1/"
   xmlns:cc="http://creativecommons.org/ns#"
   xmlns:rdf="http://www.w3.org/1999/02/22-rdf-syntax-ns#"
   xmlns:svg="http://www.w3.org/2000/svg"
   xmlns="http://www.w3.org/2000/svg"
   xmlns:sodipodi="http://sodipodi.sourceforge.net/DTD/sodipodi-0.dtd"
   xmlns:inkscape="http://www.inkscape.org/namespaces/inkscape"
   width="6.4in"
   height="3.6in"
   viewBox="0 0 1920 1080"
   version="1.1"
   id="svg3"
   sodipodi:docname="yaranai.svg"
   inkscape:version="1.0.1 (3bc2e813f5, 2020-09-07, custom)">
  <metadata
     id="metadata9">
    <rdf:RDF>
      <cc:Work
         rdf:about="">
        <dc:format>image/svg+xml</dc:format>
        <dc:type
           rdf:resource="http://purl.org/dc/dcmitype/StillImage" />
      </cc:Work>
    </rdf:RDF>
  </metadata>
  <defs
     id="defs7" />
  <sodipodi:namedview
     pagecolor="#ffffff"
     bordercolor="#666666"
     borderopacity="1"
     objecttolerance="10"
     gridtolerance="10"
     guidetolerance="10"
     inkscape:pageopacity="0"
     inkscape:pageshadow="2"
     inkscape:window-width="1862"
     inkscape:window-height="1049"
     id="namedview5"
     showgrid="false"
     inkscape:zoom="8"
     inkscape:cx="294.12648"
     inkscape:cy="140.4509"
     inkscape:window-x="0"
     inkscape:window-y="0"
     inkscape:window-maximized="1"
     inkscape:current-layer="svg3" />
  <path
     id="Yaranaika"
     fill="none"
     stroke="black"
     stroke-width="1"
     d="M 970.00,314.00            C 974.79,313.06 978.21,312.83 980.00,318.00              974.91,319.19 971.86,319.59 970.00,314.00 Z            M 926.00,346.00            C 926.35,338.78 930.59,326.39 938.00,324.00              937.28,330.96 933.14,343.69 926.00,346.00 Z            M 996.00,324.00            C 996.00,324.00 999.00,324.00 999.00,324.00              999.00,324.00 1005.00,339.00 1005.00,339.00              1005.00,336.68 1004.45,330.47 1006.60,329.13              1009.20,327.51 1014.69,331.81 1017.00,333.13              1025.14,337.77 1035.77,341.29 1045.00,342.92              1063.24,346.13 1081.49,347.97 1100.00,348.00              1100.00,348.00 1112.00,348.96 1112.00,348.96              1112.00,348.96 1126.00,348.96 1126.00,348.96              1126.00,348.96 1138.00,349.91 1138.00,349.91              1138.00,349.91 1159.00,351.17 1159.00,351.17              1159.00,351.17 1173.00,353.00 1173.00,353.00              1172.81,356.47 1172.31,358.80 1174.18,361.98              1176.59,366.06 1179.44,366.54 1181.35,368.54              1183.87,371.17 1187.11,381.41 1184.97,384.69              1182.75,388.11 1177.32,386.55 1174.00,386.15              1174.00,386.15 1145.00,383.01 1145.00,383.01              1145.00,383.01 1116.00,380.17 1116.00,380.17              1116.00,380.17 1071.00,376.91 1071.00,376.91              1071.00,376.91 1061.00,376.00 1061.00,376.00              1052.38,375.90 1046.60,375.84 1038.00,377.46              1038.00,377.46 1021.00,381.00 1021.00,381.00              1021.00,381.00 1032.00,371.00 1032.00,371.00              1025.53,367.75 1026.01,368.10 1019.00,369.00              1019.00,369.00 1018.00,362.00 1018.00,362.00              1012.75,365.34 1008.93,359.97 1006.06,355.83              999.48,346.32 996.10,335.54 996.00,324.00 Z            M 913.00,340.00            C 920.42,334.41 918.75,331.18 926.00,329.00              925.98,331.43 926.05,333.63 925.36,336.00              923.73,341.67 915.24,353.81 910.96,357.90              910.96,357.90 902.00,365.00 902.00,365.00              908.43,370.27 916.11,380.62 917.00,389.00              909.53,387.14 901.96,377.40 898.07,371.00              894.73,365.52 895.14,361.73 891.86,360.78              889.53,360.11 884.41,362.23 882.00,362.98              876.87,364.56 867.26,366.77 862.00,366.87              857.04,366.97 854.65,364.95 849.00,364.87              849.00,364.87 823.00,367.00 823.00,367.00              823.00,367.00 805.00,367.00 805.00,367.00              805.00,367.00 794.00,368.10 794.00,368.10              794.00,368.10 783.00,368.10 783.00,368.10              775.69,369.16 763.69,371.09 757.00,373.71              749.77,376.54 750.58,379.50 742.00,380.00              742.00,380.00 743.00,371.00 743.00,371.00              743.00,371.00 736.00,373.00 736.00,373.00              739.50,354.34 757.31,342.36 775.00,339.73              789.50,337.57 799.54,337.98 814.00,338.00              814.00,338.00 845.00,340.00 845.00,340.00              845.00,340.00 873.00,340.00 873.00,340.00              880.45,339.91 890.76,337.81 898.00,335.85              900.90,335.07 908.04,332.50 910.69,333.64              913.18,334.71 912.92,337.76 913.00,340.00 Z            M 983.00,336.00            C 983.00,336.00 986.00,336.00 986.00,336.00              989.17,345.48 992.52,353.58 998.00,362.00              998.00,362.00 991.00,341.00 991.00,341.00              995.81,342.67 998.25,347.98 1001.02,352.00              1005.46,358.44 1018.41,374.25 1005.00,378.21              1003.29,378.72 1001.75,378.84 1000.00,379.00              1000.00,379.00 1004.00,367.00 1004.00,367.00              993.80,374.31 992.59,382.47 984.00,385.00              984.00,385.00 990.65,366.00 990.65,366.00              990.65,366.00 983.00,336.00 983.00,336.00 Z            M 874.00,381.00            C 875.57,371.79 883.79,376.20 889.00,376.95              892.67,377.47 895.52,376.20 899.82,380.23              901.76,382.05 903.38,384.58 904.48,387.00              906.37,391.12 907.96,397.61 906.26,402.00              904.76,405.87 901.35,407.94 898.00,410.04              889.76,415.20 882.89,418.91 873.00,419.00              873.49,416.00 873.66,414.73 876.15,412.64              879.93,409.44 889.51,407.35 895.96,401.67              900.33,397.82 901.99,394.05 897.61,389.33              896.31,387.93 894.64,386.83 893.00,385.88              890.61,384.50 888.66,383.70 886.00,383.04              886.00,383.04 874.00,381.00 874.00,381.00 Z            M 782.00,380.00            C 782.00,380.00 813.00,378.00 813.00,378.00              813.00,378.00 835.00,378.00 835.00,378.00              835.00,378.00 850.00,379.00 850.00,379.00              850.00,379.00 850.00,383.00 850.00,383.00              842.17,384.03 840.86,384.04 833.00,384.00              833.00,384.00 821.00,383.32 821.00,383.32              821.00,383.32 799.00,384.00 799.00,384.00              793.70,384.00 784.19,386.07 782.00,380.00 Z            M 1042.00,384.00            C 1042.41,382.84 1042.40,381.89 1043.59,381.06              1045.28,379.88 1056.48,381.20 1059.00,381.59              1073.74,383.90 1087.94,387.78 1102.00,392.66              1104.64,393.57 1113.59,395.93 1115.01,397.72              1115.88,398.81 1115.79,399.77 1116.00,401.00              1116.00,401.00 1087.00,394.48 1087.00,394.48              1087.00,394.48 1042.00,384.00 1042.00,384.00 Z            M 1026.00,384.00            C 1026.00,384.00 1038.00,384.00 1038.00,384.00              1035.95,389.75 1031.02,388.85 1026.00,388.00              1026.00,388.00 1026.00,384.00 1026.00,384.00 Z            M 763.00,393.00            C 763.43,391.77 763.38,390.95 764.59,390.02              766.62,388.48 776.09,388.97 779.00,389.00              779.00,389.00 810.00,391.00 810.00,391.00              810.00,391.00 826.00,390.18 826.00,390.18              826.00,390.18 836.00,391.00 836.00,391.00              836.00,391.00 876.00,386.37 876.00,386.37              881.18,386.64 890.05,387.45 890.72,394.00              890.88,395.59 890.54,397.10 889.40,398.28              886.70,401.05 879.66,400.99 876.00,401.00              876.00,401.00 825.00,405.28 825.00,405.28              825.00,405.28 794.00,408.96 794.00,408.96              780.77,409.47 781.47,403.96 774.91,398.76              770.98,395.65 767.62,394.55 763.00,393.00 Z            M 1035.00,395.44            C 1047.05,393.88 1062.11,396.90 1074.00,399.20              1074.00,399.20 1121.00,408.88 1121.00,408.88              1126.28,410.05 1137.88,411.69 1141.92,414.22              1146.01,416.82 1146.77,421.17 1141.92,423.37              1135.79,426.44 1117.60,422.70 1110.00,423.37              1110.00,423.37 1104.00,423.37 1104.00,423.37              1104.00,423.37 1058.00,412.26 1058.00,412.26              1050.32,410.83 1033.89,409.84 1028.33,404.37              1022.98,399.10 1031.00,396.28 1035.00,395.44 Z            M 1128.00,398.76            C 1127.83,399.94 1127.90,400.73 1127.41,401.69              1124.02,408.37 1115.54,397.81 1125.02,398.76              1125.02,398.76 1128.00,398.76 1128.00,398.76 Z            M 891.00,458.00            C 891.01,445.24 893.01,445.51 893.82,437.00              894.49,429.97 890.76,425.56 896.94,417.01              900.92,411.52 915.26,402.38 921.26,409.43              923.31,411.84 923.00,416.01 923.00,419.00              923.00,419.00 923.00,449.00 923.00,449.00              923.02,458.91 926.74,468.26 925.00,478.00              923.70,477.77 922.68,477.83 921.51,476.98              918.15,474.54 918.02,464.89 918.00,461.00              918.00,461.00 917.34,451.00 917.34,451.00              917.34,451.00 917.99,440.00 917.99,440.00              917.99,440.00 917.04,430.00 917.04,430.00              916.77,421.56 920.06,420.32 915.00,412.00              915.00,412.00 915.00,420.00 915.00,420.00              908.92,419.16 908.47,416.47 903.00,419.00              910.94,419.28 914.88,423.87 910.00,426.00              911.26,428.92 913.94,433.88 913.75,436.94              913.65,438.59 912.57,441.05 910.53,439.83              908.51,438.63 909.83,436.38 905.00,432.00              907.00,436.42 907.38,437.33 904.00,441.00              918.22,445.32 901.28,465.59 896.97,468.24              892.78,470.82 889.88,468.51 892.52,462.00              892.52,462.00 895.00,457.00 895.00,457.00              895.00,457.00 891.00,458.00 891.00,458.00 Z            M 845.00,419.00            C 845.00,419.00 863.00,418.00 863.00,418.00              862.54,419.30 862.63,419.88 861.43,420.92              858.84,423.15 849.32,423.91 846.57,421.83              845.36,420.91 845.44,420.21 845.00,419.00 Z            M 905.00,431.00            C 905.00,431.00 904.00,431.00 904.00,431.00              904.00,431.00 905.00,432.00 905.00,432.00              905.00,432.00 905.00,431.00 905.00,431.00 Z            M 900.00,447.00            C 897.46,449.67 896.33,451.24 897.00,455.00              897.00,455.00 900.00,447.00 900.00,447.00 Z            M 923.00,530.00            C 917.46,532.84 907.15,536.84 901.00,536.99              891.34,537.22 889.12,534.65 889.00,525.00              888.84,511.64 892.16,499.48 903.09,490.76              905.90,488.51 911.22,484.99 914.95,485.33              922.73,486.03 915.34,493.71 916.35,500.00              917.78,508.86 930.61,523.23 940.00,523.06              945.81,522.95 954.53,512.53 962.00,508.29              965.07,506.52 969.29,504.78 971.86,508.29              972.80,509.59 974.27,515.01 975.00,517.00              975.00,517.00 979.00,514.00 979.00,514.00              981.42,520.05 983.55,528.54 988.00,533.00              988.00,533.00 981.00,502.00 981.00,502.00              986.45,502.91 988.10,506.30 990.47,511.00              994.61,519.22 996.00,526.20 992.92,535.00              992.35,536.65 991.34,539.28 990.19,540.66              986.68,544.49 983.09,541.28 980.00,540.66              977.06,540.16 972.68,541.58 969.09,540.66              965.69,539.85 964.73,537.36 960.99,537.67              955.00,538.17 946.51,544.92 942.09,548.69              939.64,550.78 935.95,554.11 932.53,551.99              929.82,550.31 927.20,542.20 925.85,539.00              924.36,535.47 923.69,533.80 923.00,530.00 Z            M 960.00,521.00            C 960.00,521.00 956.00,522.00 956.00,522.00              956.00,522.00 959.00,525.00 959.00,525.00              959.00,525.00 960.00,521.00 960.00,521.00 Z            M 948.00,528.00            C 948.00,528.00 942.00,531.00 942.00,531.00              945.80,531.48 946.10,531.34 948.00,528.00 Z            M 875.00,604.00            C 887.13,592.96 901.06,583.20 918.00,583.00              918.00,583.00 941.00,585.00 941.00,585.00              957.90,585.19 982.59,582.95 998.00,588.34              1004.96,590.78 1010.45,594.48 1016.00,599.29              1018.59,601.53 1022.82,606.28 1026.00,607.05              1029.17,607.83 1032.86,605.14 1035.40,607.05              1038.15,609.09 1036.59,614.13 1034.85,616.32              1030.83,621.41 1024.03,622.21 1018.00,621.96              1018.00,621.96 1005.00,620.28 1005.00,620.28              1005.00,620.28 956.00,613.17 956.00,613.17              942.19,611.84 920.98,613.67 907.00,615.16              907.00,615.16 875.00,619.79 875.00,619.79              871.61,620.50 865.50,622.05 862.74,619.26              857.90,614.39 869.36,585.11 875.00,604.00 Z            M 1013.00,614.00            C 1007.92,591.79 987.55,592.00 969.00,592.00              969.00,592.00 945.00,592.00 945.00,592.00              935.58,591.99 916.50,588.22 909.00,590.04              901.10,591.96 886.67,601.25 884.00,609.00              893.85,612.25 903.95,609.49 914.00,608.10              914.00,608.10 924.00,608.10 924.00,608.10              924.00,608.10 945.00,607.00 945.00,607.00              945.00,607.00 959.00,608.00 959.00,608.00              959.00,608.00 990.00,610.28 990.00,610.28              990.00,610.28 999.00,611.46 999.00,611.46              1005.61,612.68 1005.09,613.82 1013.00,614.00 Z            M 896.00,661.00            C 896.00,661.00 918.00,665.25 918.00,665.25              918.00,665.25 940.00,667.00 940.00,667.00              940.00,667.00 955.00,668.00 955.00,668.00              955.00,668.00 987.00,666.70 987.00,666.70              987.00,666.70 1009.00,663.00 1009.00,663.00              1008.51,664.62 1008.52,665.32 1007.41,666.79              1004.72,670.35 989.72,677.81 985.00,680.41              977.88,684.34 967.09,690.76 959.00,690.98              959.00,690.98 939.00,689.17 939.00,689.17              932.19,689.74 918.03,691.36 912.32,686.91              907.62,683.26 914.41,680.36 909.80,675.21              904.60,669.39 897.56,670.59 896.00,661.00 Z            M 936.00,741.00            C 936.00,741.00 939.00,741.00 939.00,741.00              939.00,741.00 935.00,772.00 935.00,772.00              935.00,772.00 932.00,772.00 932.00,772.00              932.00,755.81 932.55,756.27 936.00,741.00 Z" />
  <path
     d="m 292.53954,123.87735 c -1.99642,-1.09358 -4.30252,-3.75627 -5.48309,-6.33094 -0.78508,-1.71219 -0.91356,-1.93341 -1.24453,-2.14305 -0.45111,-0.28572 -1.38824,-0.19135 -2.85383,0.2874 -0.63868,0.20863 -1.80255,0.53786 -2.58639,0.73162 -3.15693,0.78036 -4.86298,0.90963 -6.43959,0.48796 -1.38911,-0.37154 -2.22126,-0.37364 -6.49742,-0.0164 -3.16582,0.26445 -4.48335,0.32711 -6.91464,0.32881 -1.89793,10e-4 -3.52823,0.0588 -4.42876,0.15625 -0.78384,0.0848 -2.29467,0.1551 -3.35741,0.15625 -1.54536,0.002 -2.26403,0.0552 -3.58928,0.26715 -4.9159,0.78634 -6.99272,1.38971 -8.73331,2.5373 -1.03463,0.68214 -1.40528,0.84131 -2.24,0.96193 -0.43996,0.0636 -0.44856,0.0589 -0.4436,-0.23983 0.003,-0.16756 0.065,-0.81534 0.13814,-1.4395 0.0732,-0.62417 0.0917,-1.13485 0.0412,-1.13485 -0.0505,0 -0.52,0.12317 -1.04326,0.27371 -0.52326,0.15053 -0.97741,0.24767 -1.00923,0.21586 -0.10572,-0.10573 0.50867,-1.79641 0.97327,-2.6782 1.55393,-2.94934 4.51148,-5.34457 8.17297,-6.61905 3.78738,-1.3183 10.40378,-1.64769 20.18106,-1.0047 4.67449,0.30741 5.15381,0.32026 10.54492,0.28267 4.73449,-0.033 5.82709,-0.069 6.75629,-0.22278 1.63942,-0.27125 3.85767,-0.76896 5.51598,-1.23763 3.30571,-0.93424 3.795,-0.83141 3.94585,0.8293 0.0382,0.42094 0.10039,0.76536 0.13811,0.76536 0.18299,0 1.33988,-1.10598 2.0495,-1.95931 0.53641,-0.64504 0.96523,-1.04888 1.31714,-1.24041 0.28698,-0.1562 0.55099,-0.28399 0.58668,-0.28399 0.10591,0 0.0739,0.89698 -0.0535,1.49913 -0.24355,1.15122 -1.38676,3.1772 -2.98533,5.29055 -1.19096,1.57448 -1.45501,1.84064 -3.15116,3.17635 -0.79835,0.6287 -1.45155,1.18064 -1.45155,1.22653 0,0.0459 0.23728,0.28211 0.52729,0.52492 0.59964,0.50204 1.88608,2.00199 2.52899,2.94873 0.82125,1.20934 1.80308,3.43916 1.67595,3.80621 -0.019,0.0548 -0.28334,-0.0367 -0.58748,-0.20332 z"
     id="path11"
     style="stroke-width:0.105567"
     transform="scale(3.125)" />
  <path
     d="m 252.46925,130.59678 c -1.28413,-0.15035 -1.94145,-0.54777 -3.04014,-1.83807 -1.13904,-1.33769 -2.56147,-2.3034 -4.18757,-2.84302 -0.80184,-0.26609 -0.86134,-0.31982 -0.6961,-0.62857 0.24612,-0.45987 0.56507,-0.5289 2.64909,-0.57335 1.43786,-0.0307 3.26171,0.0451 6.91464,0.28719 4.79719,0.31793 5.048,0.32459 7.56665,0.20084 2.04818,-0.10063 2.95079,-0.1004 4.22268,10e-4 l 1.61768,0.1291 6.43959,-0.75033 c 6.74104,-0.78544 7.005,-0.80001 8.474,-0.46772 1.58563,0.35867 2.37098,1.07936 2.37098,2.17577 0,0.88546 -0.47562,1.32931 -1.73027,1.61467 -0.39107,0.089 -1.0581,0.16172 -1.4823,0.16172 -1.64791,0 -18.24725,1.48208 -23.04,2.05714 -2.66799,0.32012 -4.97199,0.57579 -5.12,0.56816 -0.14801,-0.008 -0.57953,-0.0502 -0.95893,-0.0946 z"
     id="path13"
     style="stroke-width:0.105567"
     transform="scale(3.125)" />
  <path
     d="m 251.94505,122.67951 c -0.46201,-0.0977 -1.26674,-0.57372 -1.3385,-0.79167 -0.023,-0.0699 1.61763,-0.21148 4.6366,-0.4001 3.89742,-0.24351 5.3637,-0.28949 8.8421,-0.27726 2.29345,0.008 4.95374,0.0693 5.91176,0.13618 l 1.74185,0.12152 0.032,0.43904 c 0.0378,0.51886 0.0785,0.50309 -1.72106,0.66823 -1.51065,0.13864 -3.03472,0.13528 -5.40883,-0.0119 -1.4376,-0.0891 -2.8545,-0.0887 -5.59505,0.002 -2.01846,0.0667 -4.33501,0.14227 -5.14787,0.16793 -0.81287,0.0257 -1.69171,0.001 -1.95299,-0.0539 z"
     id="path15"
     style="stroke-width:0.105567"
     transform="scale(3.125)" />
  <path
     d="m 279.6496,133.59589 c 0.23963,-0.96099 0.77555,-1.48078 2.22697,-2.15996 2.84177,-1.32979 3.35737,-1.59265 4.07185,-2.07585 0.93498,-0.63232 1.82198,-1.54488 2.10266,-2.16325 0.59038,-1.30071 -0.22358,-2.76281 -2.15247,-3.86643 -1.11879,-0.64013 -1.96522,-0.90294 -4.0552,-1.25914 -1.00349,-0.17103 -1.84733,-0.33376 -1.8752,-0.36163 -0.10649,-0.10649 0.27511,-0.80861 0.57797,-1.06345 0.47093,-0.39626 0.96895,-0.43674 2.22477,-0.18082 0.60229,0.12274 1.13586,0.24838 1.18573,0.2792 0.0499,0.0308 0.62839,0.0929 1.28562,0.13804 1.44894,0.0994 2.00155,0.35154 2.86703,1.30792 1.51602,1.67526 2.33042,4.90344 1.63543,6.48271 -0.44635,1.01426 -2.06569,2.25446 -4.81002,3.68382 -1.72265,0.89723 -2.9931,1.29982 -4.63349,1.46832 l -0.72751,0.0747 z"
     id="path17"
     style="stroke-width:0.105567"
     transform="scale(3.125)" />
  <path
     d="m 271.42356,134.97997 c -0.38503,-0.1371 -0.68758,-0.39778 -0.68758,-0.59241 0,-0.0428 0.2494,-0.10377 0.55422,-0.13552 1.01522,-0.10574 4.44879,-0.26799 4.50395,-0.21283 0.0974,0.0974 -0.16386,0.40918 -0.51533,0.61505 -0.79227,0.46408 -2.95385,0.6467 -3.85526,0.32571 z"
     id="path19"
     style="stroke-width:0.105567"
     transform="scale(3.125)" />
  <path
     d="m 295.38992,152.60599 c -1.03198,-0.35626 -1.24684,-1.26662 -1.53126,-6.48791 -0.0731,-1.34253 -0.0716,-2.44796 0.005,-3.5365 0.0919,-1.30673 0.0802,-1.92485 -0.0666,-3.53649 -0.16339,-1.79414 -0.16443,-2.06461 -0.0127,-3.32536 0.21933,-1.82307 0.0754,-2.5043 -0.85871,-4.06433 l -0.28445,-0.47505 -0.0528,1.49607 -0.0528,1.49607 -0.9501,-0.30717 c -0.52256,-0.16894 -1.16388,-0.30413 -1.42515,-0.30041 -0.65923,0.009 -1.20667,0.22288 -1.24577,0.48585 -0.0276,0.18529 0.0435,0.22233 0.53824,0.28048 0.73805,0.0867 1.39663,0.32251 1.83512,0.65696 0.45458,0.34673 0.46009,0.68312 0.0169,1.03 l -0.33348,0.26099 0.55873,1.30184 c 0.65907,1.5356 0.79918,2.40137 0.45694,2.82345 -0.30791,0.37975 -0.57646,0.22498 -0.93684,-0.53992 -0.17005,-0.36092 -0.51108,-0.90605 -0.75784,-1.21141 -0.24677,-0.30535 -0.44866,-0.65086 -0.44866,-0.76781 0,-0.18162 -0.0693,-0.21262 -0.47506,-0.21262 -0.52873,0 -0.58286,0.0825 -0.24895,0.37951 0.32459,0.28871 0.72177,1.19142 0.72297,1.64317 7.9e-4,0.29367 -0.1025,0.51738 -0.43037,0.93217 -0.23728,0.30017 -0.41542,0.55717 -0.39588,0.57111 0.0195,0.0139 0.30754,0.15558 0.64,0.31477 0.68858,0.3297 0.97842,0.67548 1.12886,1.34677 0.29683,1.32451 -0.91931,3.80594 -2.87356,5.86326 -0.80144,0.84371 -1.34838,1.19501 -1.86051,1.19501 -0.73969,0 -0.70653,-0.97892 0.0908,-2.68105 0.29638,-0.63268 0.51582,-1.17338 0.48765,-1.20154 -0.0282,-0.0282 -0.3379,0.021 -0.6883,0.10926 l -0.63708,0.16048 9e-5,-0.27852 c 2.6e-4,-0.80599 0.24767,-2.72966 0.47125,-3.66399 0.46067,-1.92513 0.53039,-2.7453 0.38047,-4.47563 -0.15453,-1.78346 -0.0622,-2.37794 0.5465,-3.52003 0.80242,-1.50549 2.76811,-3.03713 4.75246,-3.70304 1.5438,-0.51807 2.85727,-0.19583 3.39387,0.83262 0.21458,0.41128 0.22192,0.59664 0.28205,7.12577 l 0.0617,6.70351 0.32792,2.11134 c 0.36756,2.36661 0.49077,3.95732 0.36928,4.76769 l -0.0817,0.54501 z m -7.78873,-7.88767 c 0.30531,-0.82683 0.55471,-1.55763 0.55423,-1.624 -0.002,-0.31554 -0.3334,-0.21227 -0.68152,0.21256 -0.45035,0.54959 -0.69174,1.10062 -0.69174,1.57905 0,0.51325 0.12282,1.33789 0.19909,1.33672 0.0357,-5.3e-4 0.31463,-0.6775 0.61994,-1.50433 z"
     id="path21"
     style="stroke-width:0.105567"
     transform="scale(3.125)" />
  <path
     d="m 298.64316,176.52219 c -0.26838,-0.10829 -0.66031,-0.60947 -0.99084,-1.26701 -0.50221,-0.99907 -1.78292,-4.35551 -1.95213,-5.11604 -0.0974,-0.43797 -0.19585,-0.79632 -0.21868,-0.79632 -0.0228,0 -0.52875,0.21957 -1.12425,0.48793 -1.41607,0.63815 -2.7829,1.13065 -4.11876,1.48409 -0.88767,0.23487 -1.3092,0.28629 -2.35617,0.28743 -1.20324,0.001 -1.31022,-0.0162 -1.89861,-0.31089 -0.50528,-0.25305 -0.66865,-0.40236 -0.8615,-0.78732 -0.34097,-0.68064 -0.48663,-1.92681 -0.41336,-3.5365 0.2093,-4.59814 1.66895,-7.6659 4.75741,-9.99871 1.91344,-1.44528 3.78655,-1.881 4.19859,-0.97667 0.10445,0.22924 0.0679,0.4649 -0.2339,1.50645 -0.43775,1.51098 -0.5099,2.35082 -0.26703,3.10815 0.80409,2.50734 3.29293,5.34045 5.68933,6.47628 0.64922,0.30772 0.9946,0.40324 1.59813,0.44197 1.22116,0.0784 1.82689,-0.25274 4.59386,-2.51117 2.32132,-1.89467 3.29547,-2.52394 4.23352,-2.73471 1.09722,-0.24653 1.49682,0.12734 2.10461,1.96913 0.24447,0.7408 0.4744,1.38038 0.51097,1.42128 0.0366,0.0409 0.31284,-0.11349 0.61394,-0.34309 0.3011,-0.22961 0.58697,-0.41746 0.63526,-0.41746 0.0483,0 0.30053,0.60569 0.56053,1.34598 0.61867,1.76152 1.5614,3.63821 2.15796,4.29582 0.26034,0.28699 0.50242,0.49274 0.53795,0.45721 0.0355,-0.0355 -0.44235,-2.30503 -1.06195,-5.04334 -0.6196,-2.73832 -1.10711,-4.99819 -1.08335,-5.02194 0.0238,-0.0238 0.29178,0.0807 0.59561,0.23209 0.36674,0.18275 0.69036,0.45798 0.96283,0.81886 0.62887,0.83293 1.654,3.04877 1.96256,4.24211 0.4952,1.9151 0.23766,4.10323 -0.70261,5.96963 -0.59722,1.18548 -1.22267,1.39572 -2.5934,0.87175 -0.64325,-0.24589 -0.84437,-0.27311 -1.78082,-0.24103 -2.39247,0.082 -2.43961,0.0756 -3.46745,-0.46685 -0.80417,-0.42443 -1.01973,-0.49287 -1.55231,-0.49287 -1.418,0 -3.18171,0.97379 -6.23207,3.44089 -1.55128,1.25466 -2.09814,1.48965 -2.80387,1.20487 z m 4.26112,-6.59002 c 0.33954,-0.2857 0.94884,-1.32832 0.77627,-1.32832 -0.16838,0 -2.75241,1.30478 -2.75241,1.3898 0,0.092 0.41285,0.15721 1.12675,0.17789 0.43789,0.0127 0.60623,-0.0348 0.84939,-0.23937 z m 4.33868,-2.51329 c 0.11993,-0.47755 0.19889,-0.88744 0.17546,-0.91087 -0.0396,-0.0396 -0.46067,0.0509 -1.4647,0.31499 l -0.41111,0.10813 0.67198,0.67801 c 0.36959,0.37291 0.70311,0.67801 0.74116,0.67801 0.038,0 0.16729,-0.39072 0.28721,-0.86827 z"
     id="path23"
     style="stroke-width:0.105567"
     transform="scale(3.125)" />
  <path
     d="m 323.09721,198.48515 c -1.42251,-0.19686 -5.888,-0.84808 -9.9233,-1.44714 l -7.3369,-1.08921 -4.01155,0.005 c -3.97911,0.005 -5.71431,0.0967 -9.97608,0.52662 -1.68645,0.17013 -11.12548,1.51041 -12.60053,1.78918 -1.04944,0.19833 -2.20658,0.2025 -2.58022,0.009 -0.61331,-0.31715 -0.70761,-0.52955 -0.7011,-1.57916 0.007,-1.10477 0.28064,-2.20516 0.84575,-3.39929 0.41188,-0.87034 1.08711,-1.68293 1.4805,-1.78166 0.52854,-0.13266 1.04074,0.42186 1.38309,1.49734 0.097,0.30483 0.21143,0.55423 0.25421,0.55423 0.0428,0 0.33101,-0.22688 0.64051,-0.50418 4.50252,-4.03404 8.50636,-6.04305 12.38624,-6.21506 0.93166,-0.0413 2.21638,0.0275 4.85608,0.26011 3.54518,0.31238 3.65227,0.31556 8.71442,0.2588 5.43286,-0.0609 7.51626,0.0237 9.81171,0.39833 3.72076,0.60731 5.98341,1.78655 9.49208,4.94702 1.43735,1.29472 2.22718,1.80508 2.79347,1.80508 0.17278,0 0.70262,-0.0728 1.17744,-0.16176 0.9773,-0.18313 1.30396,-0.11781 1.58941,0.31784 0.4338,0.66205 0.004,2.137 -0.8327,2.85917 -1.51956,1.31118 -3.25379,1.5318 -7.46253,0.94935 z m 1.26681,-1.9477 c 0,-0.39904 -0.45445,-1.66863 -0.92979,-2.59751 -0.70945,-1.3864 -1.91699,-2.57941 -3.29316,-3.25355 -1.18221,-0.57913 -2.4106,-0.94595 -3.98052,-1.18867 -0.93611,-0.14473 -2.43784,-0.1901 -8.42334,-0.25447 -6.9061,-0.0743 -7.41013,-0.0928 -9.71216,-0.35699 -4.5913,-0.52692 -6.45421,-0.54376 -7.85304,-0.071 -1.84944,0.62505 -4.21474,2.10711 -5.78939,3.62754 -0.78644,0.75936 -1.54529,1.80992 -1.66756,2.30858 -0.0646,0.26343 -0.0369,0.29248 0.38888,0.40818 2.0797,0.56511 3.83192,0.53928 7.84812,-0.11567 0.82887,-0.13518 1.79597,-0.20782 2.79752,-0.21015 0.8419,-0.002 3.1459,-0.0889 5.12,-0.19316 2.38082,-0.12576 3.96248,-0.16197 4.69774,-0.10753 0.60965,0.0451 3.79249,0.27602 7.07299,0.51308 6.69263,0.48362 8.6905,0.71 10.45113,1.18422 0.66771,0.17985 1.64157,0.36037 2.16412,0.40115 0.52256,0.0408 0.98574,0.0813 1.02928,0.0901 0.0436,0.009 0.0792,-0.0741 0.0792,-0.18411 z"
     id="path25"
     style="stroke-width:0.105567"
     transform="scale(3.125)" />
  <path
     d="m 303.46175,220.61322 c -2.34206,-0.22028 -3.20747,-0.26338 -3.90598,-0.19452 -0.49353,0.0487 -1.82367,0.0933 -2.95588,0.0991 -2.65907,0.0138 -3.91628,-0.26558 -4.68231,-1.04054 -0.28131,-0.2846 -0.2966,-0.34333 -0.23068,-0.88644 0.1698,-1.39894 0.17551,-1.59467 0.057,-1.9537 -0.19337,-0.58591 -1.04624,-1.34935 -2.40419,-2.15211 -0.68089,-0.40251 -1.36593,-0.86686 -1.52232,-1.03188 -0.30546,-0.32233 -0.88417,-1.48919 -0.78684,-1.58652 0.0324,-0.0324 1.56934,0.23037 3.41537,0.58397 3.17433,0.60804 3.57407,0.66016 7.36797,0.96075 7.27114,0.57607 7.622,0.58519 13.19588,0.34306 l 4.96165,-0.21555 3.25325,-0.54649 c 1.78929,-0.30058 3.27733,-0.52242 3.30676,-0.493 0.0294,0.0294 -0.0176,0.19102 -0.10453,0.3591 -0.37874,0.7324 -1.67632,1.62959 -4.81919,3.33213 -0.95802,0.51897 -2.65655,1.4421 -3.7745,2.05139 -3.25769,1.77546 -5.14283,2.5138 -6.66388,2.60999 -0.38442,0.0243 -2.05284,-0.0831 -3.7076,-0.23878 z"
     id="path27"
     style="stroke-width:0.105567"
     transform="scale(3.125)" />
  <path
     d="m 359.13918,135.45473 c -0.78383,-0.077 -2.3881,-0.1439 -3.56503,-0.14864 l -2.13988,-0.009 -7.46672,-1.8026 c -5.78505,-1.39662 -7.94224,-1.87297 -9.57806,-2.11501 -3.77407,-0.55841 -5.33491,-0.95902 -6.49875,-1.66795 -1.49413,-0.91013 -1.51404,-1.83199 -0.054,-2.50041 1.07675,-0.49295 1.90009,-0.59644 4.28308,-0.53836 3.44612,0.084 4.96215,0.33458 16.94351,2.80056 4.23851,0.87236 8.56327,1.75648 9.61057,1.9647 3.54237,0.70429 4.62591,1.09013 5.24986,1.86943 0.60664,0.75768 0.36409,1.50055 -0.64422,1.97309 -0.57814,0.27094 -0.66668,0.28084 -2.65663,0.29705 -1.1322,0.009 -2.69987,-0.0462 -3.48371,-0.12323 z"
     id="path29"
     style="stroke-width:0.105567"
     transform="scale(3.125)" />
  <path
     d=""
     id="path31"
     style="stroke-width:0.105567"
     transform="scale(3.125)" />
  <path
     d="m 359.34741,128.88911 c -0.54592,-0.37627 -0.68011,-0.78529 -0.32073,-0.97763 0.1123,-0.0601 0.53985,-0.10928 0.9501,-0.10928 0.60327,0 0.74591,0.0313 0.74591,0.1636 0,0.25837 -0.29328,0.75813 -0.55072,0.93845 -0.30213,0.21162 -0.50084,0.20797 -0.82456,-0.0151 z"
     id="path33"
     style="stroke-width:0.105567"
     transform="scale(3.125)" />
  <path
     d="m 352.17176,127.00111 c -3.91726,-0.89008 -13.5877,-3.12894 -17.11679,-3.96282 -1.20555,-0.28485 -1.32926,-0.33546 -1.28004,-0.52368 0.1011,-0.38662 0.44428,-0.51866 1.34485,-0.51746 2.71082,0.004 7.94883,0.96596 12.61817,2.31826 2.19575,0.63592 7.55595,2.3951 8.2095,2.69431 0.32124,0.14707 0.64673,0.34991 0.72331,0.45076 0.17761,0.23392 0.18588,0.55539 0.014,0.54447 -0.0726,-0.005 -2.10342,-0.45634 -4.51299,-1.00384 z"
     id="path35"
     style="stroke-width:0.105567"
     transform="scale(3.125)" />
  <path
     d="m 328.76227,124.03286 c -0.20369,-0.0392 -0.23752,-0.11237 -0.23752,-0.51346 v -0.46771 h 1.63629 c 0.89996,0 1.63629,0.0411 1.63629,0.0913 0,0.1974 -0.47594,0.68084 -0.80609,0.81878 -0.32809,0.13708 -1.6649,0.1797 -2.22897,0.0711 z"
     id="path37"
     style="stroke-width:0.105567"
     transform="scale(3.125)" />
  <path
     d="m 376.39939,123.46726 c -0.78807,-0.13075 -9.73058,-1.08898 -14.72088,-1.57741 -2.40642,-0.23553 -7.63198,-0.66441 -11.61237,-0.95307 -3.98038,-0.28866 -8.0684,-0.60212 -9.08448,-0.69657 -1.37328,-0.12767 -2.42995,-0.15585 -4.11712,-0.10981 -2.52745,0.069 -3.46001,0.18952 -6.75455,0.87316 -1.24737,0.25883 -2.3266,0.45738 -2.39829,0.44122 -0.0717,-0.0162 0.52135,-0.61899 1.31785,-1.33961 0.7965,-0.72063 1.46317,-1.34752 1.48149,-1.3931 0.0415,-0.1033 -0.64605,-0.45799 -1.55696,-0.8032 -0.6158,-0.23336 -0.79136,-0.25493 -1.57143,-0.19303 -0.48299,0.0383 -0.93887,0.093 -1.01306,0.12145 -0.0994,0.0381 -0.17118,-0.2425 -0.27271,-1.06546 -0.0758,-0.61446 -0.17109,-1.13776 -0.21174,-1.16289 -0.0406,-0.0251 -0.25724,0.0478 -0.48133,0.16204 -0.51841,0.2643 -0.81786,0.26177 -1.38278,-0.0117 -0.87841,-0.42523 -2.25291,-2.28372 -3.31145,-4.47749 -0.9322,-1.93192 -1.43747,-3.70628 -1.68367,-5.91257 -0.16527,-1.481 -0.15909,-1.53072 0.19024,-1.53072 0.2902,0 0.32271,0.0622 1.24042,2.3744 1.14032,2.87303 1.25424,2.97419 1.33843,1.18849 0.0553,-1.17204 0.18382,-1.74072 0.42872,-1.89644 0.38079,-0.24213 1.12141,0.0413 2.7942,1.06925 1.77379,1.09004 4.30202,2.11606 6.92765,2.81142 4.05331,1.07347 13.38275,2.15204 18.69547,2.16138 0.69674,0.001 2.07439,0.0719 3.06144,0.15701 0.98705,0.0851 2.8643,0.15542 4.17167,0.15619 1.30736,7.7e-4 3.23132,0.0717 4.27546,0.15754 1.04414,0.0859 3.46611,0.2513 5.38215,0.36762 1.91604,0.11631 4.3816,0.33108 5.47903,0.47726 1.09742,0.14618 2.02377,0.26567 2.05855,0.26554 0.0348,-1.3e-4 0.0475,0.33081 0.0283,0.73542 -0.0443,0.93395 0.17716,1.71327 0.67925,2.39 0.36488,0.4918 0.64542,0.74219 1.73092,1.54492 1.19652,0.88482 2.15285,4.43992 1.41661,5.26613 -0.43395,0.48697 -1.24107,0.61568 -2.52506,0.40264 z"
     id="path39"
     style="stroke-width:0.105567"
     transform="scale(3.125)" />
  <path
     d=""
     id="path41"
     style="stroke-width:0.105567"
     transform="scale(3.125)" />
  <path
     d="m 315.32887,122.64264 c 0,-0.0508 0.42753,-1.31295 0.95006,-2.8048 l 0.95005,-2.71244 -0.96035,-3.76675 c -0.5282,-2.07172 -1.07106,-4.18243 -1.20636,-4.69047 l -0.246,-0.92371 h 0.30908 c 0.17,0 0.30909,0.0512 0.30909,0.1139 0,0.2137 1.07784,2.9973 1.65228,4.26713 0.54705,1.2093 2.01852,3.85498 2.14216,3.85158 0.0323,-8.9e-4 0.12392,-0.0429 0.20357,-0.0934 0.11662,-0.0739 -0.0551,-0.69163 -0.88191,-3.172 -0.56471,-1.69415 -1.0031,-3.10391 -0.9742,-3.1328 0.12332,-0.12332 1.24986,1.15434 1.91958,2.17709 0.39922,0.60965 1.12627,1.67851 1.61568,2.37525 1.20732,1.71881 2.03531,3.41491 2.10778,4.31772 0.0704,0.87729 -0.003,1.14026 -0.45892,1.64497 -0.40171,0.44465 -1.11213,0.76717 -1.96255,0.89097 l -0.49551,0.0721 0.67244,-2.01135 c 0.36984,-1.10624 0.63528,-2.01135 0.58986,-2.01135 -0.14751,0 -1.09946,0.75352 -1.78624,1.4139 -0.36873,0.35456 -1.11351,1.17347 -1.65507,1.8198 -1.14516,1.36672 -1.64029,1.86879 -2.18541,2.21606 -0.41234,0.26268 -0.60911,0.31389 -0.60911,0.15851 z"
     id="path43"
     style="stroke-width:0.105567"
     transform="scale(3.125)" />
  <path
     d="m 311.70186,101.72393 c -0.16591,-0.0496 -0.39642,-0.17592 -0.51225,-0.28074 -0.26171,-0.23685 -0.51979,-0.72242 -0.4311,-0.81111 0.0364,-0.0364 0.40266,-0.066 0.81394,-0.0658 0.85704,4.5e-4 1.32024,0.21248 1.58571,0.72584 0.15926,0.30796 0.1571,0.31422 -0.12683,0.36704 -0.71076,0.13222 -1.0486,0.14867 -1.32947,0.0647 z"
     id="path45"
     style="stroke-width:0.105567"
     transform="scale(3.125)" />
  <path
     d="m 296.59246,109.99766 c 0.39335,-2.3543 1.28855,-4.26899 2.52184,-5.39381 0.8981,-0.81911 0.89104,-0.83152 0.47698,0.8385 -0.51822,2.09018 -1.71339,4.17603 -2.73112,4.76644 l -0.33549,0.19464 z"
     id="path47"
     style="stroke-width:0.105567"
     transform="scale(3.125)" />
  <path
     d="m 298.40648,246.59832 c 0.004,-1.08044 0.11639,-3.61212 0.184,-4.1567 0.096,-0.77282 0.27127,-1.64693 0.73047,-3.64206 l 0.33409,-1.45155 0.29888,-0.0158 c 0.20813,-0.011 0.29887,0.004 0.29887,0.0483 0,0.0695 -1.14176,8.97096 -1.19249,9.29697 l -0.0308,0.19793 h -0.31206 -0.31206 z"
     id="path49"
     style="stroke-width:0.0527835"
     transform="scale(3.125)" />
</svg>
